<mxfile host="app.diagrams.net" modified="2024-03-15T09:51:15.106Z" agent="Mozilla/5.0 (Windows NT 10.0; Win64; x64) AppleWebKit/537.36 (KHTML, like Gecko) Chrome/122.0.0.0 Safari/537.36" etag="d2oCVPhhBl8VJQJFxbEq" version="24.0.6" type="github">
  <diagram name="第 1 页" id="LsWW6O-D7fb_G-EvKzW0">
    <mxGraphModel dx="1434" dy="772" grid="1" gridSize="10" guides="1" tooltips="1" connect="1" arrows="1" fold="1" page="1" pageScale="1" pageWidth="827" pageHeight="1169" math="1" shadow="0">
      <root>
        <mxCell id="0" />
        <mxCell id="1" parent="0" />
        <mxCell id="9IdHVp8q6OA4bG9y2jCa-9" value="" style="outlineConnect=0;dashed=0;verticalLabelPosition=bottom;verticalAlign=top;align=center;html=1;shape=mxgraph.aws3.management_console;fillColor=#FF6666;spacing=2;strokeColor=#82b366;fontFamily=Helvetica;fontSize=18;strokeWidth=4;" parent="1" vertex="1">
          <mxGeometry x="154" y="436" width="85" height="85" as="geometry" />
        </mxCell>
        <mxCell id="9IdHVp8q6OA4bG9y2jCa-10" value="" style="outlineConnect=0;dashed=0;verticalLabelPosition=bottom;verticalAlign=top;align=center;html=1;shape=mxgraph.aws3.management_console;fillColor=#FFB366;spacing=2;strokeColor=#d79b00;fontFamily=Helvetica;fontSize=18;" parent="1" vertex="1">
          <mxGeometry x="154" y="840" width="85" height="85" as="geometry" />
        </mxCell>
        <mxCell id="9IdHVp8q6OA4bG9y2jCa-11" value="" style="outlineConnect=0;dashed=0;verticalLabelPosition=bottom;verticalAlign=top;align=center;html=1;shape=mxgraph.aws3.management_console;fillColor=#000000;spacing=2;strokeColor=#9673a6;fontFamily=Helvetica;fontSize=18;" parent="1" vertex="1">
          <mxGeometry x="560" y="840" width="85" height="85" as="geometry" />
        </mxCell>
        <mxCell id="9IdHVp8q6OA4bG9y2jCa-12" value="" style="outlineConnect=0;dashed=0;verticalLabelPosition=bottom;verticalAlign=top;align=center;html=1;shape=mxgraph.aws3.management_console;fillColor=#66B2FF;spacing=2;strokeColor=#6c8ebf;fontFamily=Helvetica;fontSize=18;strokeWidth=4;" parent="1" vertex="1">
          <mxGeometry x="560" y="436" width="85" height="85" as="geometry" />
        </mxCell>
        <mxCell id="9IdHVp8q6OA4bG9y2jCa-15" value="" style="endArrow=classic;html=1;rounded=0;strokeWidth=4;strokeColor=#FF6666;fontSize=18;" parent="1" edge="1">
          <mxGeometry width="50" height="50" relative="1" as="geometry">
            <mxPoint x="260" y="460" as="sourcePoint" />
            <mxPoint x="540" y="460" as="targetPoint" />
          </mxGeometry>
        </mxCell>
        <mxCell id="9IdHVp8q6OA4bG9y2jCa-17" value="" style="edgeStyle=orthogonalEdgeStyle;html=1;endArrow=classic;elbow=vertical;startArrow=none;endFill=1;strokeColor=#66B2FF;rounded=0;strokeWidth=4;fontSize=18;" parent="1" edge="1">
          <mxGeometry width="100" relative="1" as="geometry">
            <mxPoint x="540" y="491" as="sourcePoint" />
            <mxPoint x="260" y="491" as="targetPoint" />
          </mxGeometry>
        </mxCell>
        <mxCell id="9IdHVp8q6OA4bG9y2jCa-18" value="&lt;font style=&quot;font-size: 18px;&quot; color=&quot;#ff6666&quot;&gt;$$AA_i$$&lt;/font&gt;" style="text;html=1;align=center;verticalAlign=middle;resizable=0;points=[];autosize=1;strokeColor=none;fillColor=none;fontSize=18;strokeWidth=4;" parent="1" vertex="1">
          <mxGeometry x="145" y="530" width="100" height="40" as="geometry" />
        </mxCell>
        <mxCell id="9IdHVp8q6OA4bG9y2jCa-19" value="&lt;font style=&quot;font-size: 18px;&quot; color=&quot;#66b2ff&quot;&gt;$$AA_j$$&lt;/font&gt;" style="text;html=1;align=center;verticalAlign=middle;resizable=0;points=[];autosize=1;strokeColor=none;fillColor=none;fontSize=18;strokeWidth=4;" parent="1" vertex="1">
          <mxGeometry x="552.5" y="530" width="100" height="40" as="geometry" />
        </mxCell>
        <mxCell id="9IdHVp8q6OA4bG9y2jCa-21" value="&lt;font style=&quot;font-size: 18px;&quot;&gt;$$AA_n$$&lt;/font&gt;" style="text;html=1;align=center;verticalAlign=middle;resizable=0;points=[];autosize=1;strokeColor=none;fillColor=none;fontSize=18;fontColor=#000000;" parent="1" vertex="1">
          <mxGeometry x="542.5" y="925" width="110" height="40" as="geometry" />
        </mxCell>
        <mxCell id="9IdHVp8q6OA4bG9y2jCa-23" value="&lt;font style=&quot;font-size: 18px;&quot; color=&quot;#ffb366&quot;&gt;$$AA_m$$&lt;/font&gt;" style="text;html=1;align=center;verticalAlign=middle;resizable=0;points=[];autosize=1;strokeColor=none;fillColor=none;fontSize=18;" parent="1" vertex="1">
          <mxGeometry x="145" y="933" width="110" height="40" as="geometry" />
        </mxCell>
        <mxCell id="SiTae46YhSQeUBweOZPs-1" value="" style="endArrow=classic;html=1;rounded=0;strokeWidth=4;strokeColor=#FF6666;fontSize=18;" edge="1" parent="1">
          <mxGeometry width="50" height="50" relative="1" as="geometry">
            <mxPoint x="180" y="570" as="sourcePoint" />
            <mxPoint x="180" y="820" as="targetPoint" />
          </mxGeometry>
        </mxCell>
        <mxCell id="SiTae46YhSQeUBweOZPs-2" value="" style="endArrow=classic;html=1;rounded=0;strokeWidth=4;strokeColor=#FF6666;fontSize=18;" edge="1" parent="1">
          <mxGeometry width="50" height="50" relative="1" as="geometry">
            <mxPoint x="249.99851851851847" y="540" as="sourcePoint" />
            <mxPoint x="570" y="810" as="targetPoint" />
          </mxGeometry>
        </mxCell>
        <mxCell id="SiTae46YhSQeUBweOZPs-4" value="" style="edgeStyle=orthogonalEdgeStyle;html=1;endArrow=classic;elbow=vertical;startArrow=none;endFill=1;strokeColor=#66B2FF;rounded=0;strokeWidth=4;fontSize=18;exitX=0.675;exitY=1;exitDx=0;exitDy=0;exitPerimeter=0;" edge="1" parent="1">
          <mxGeometry width="100" relative="1" as="geometry">
            <mxPoint x="620" y="571" as="sourcePoint" />
            <mxPoint x="620" y="821" as="targetPoint" />
          </mxGeometry>
        </mxCell>
        <mxCell id="SiTae46YhSQeUBweOZPs-7" value="" style="endArrow=classic;html=1;rounded=0;strokeColor=#66B2FF;strokeWidth=4;align=center;verticalAlign=middle;fontFamily=Helvetica;fontSize=18;fontColor=default;labelBackgroundColor=default;elbow=vertical;startArrow=none;endFill=1;" edge="1" parent="1">
          <mxGeometry width="50" height="50" relative="1" as="geometry">
            <mxPoint x="550" y="540" as="sourcePoint" />
            <mxPoint x="220" y="810" as="targetPoint" />
          </mxGeometry>
        </mxCell>
        <mxCell id="SiTae46YhSQeUBweOZPs-8" value="" style="endArrow=classic;html=1;rounded=0;strokeWidth=4;strokeColor=#FFB366;fontSize=18;" edge="1" parent="1">
          <mxGeometry width="50" height="50" relative="1" as="geometry">
            <mxPoint x="263" y="862.16" as="sourcePoint" />
            <mxPoint x="543" y="862.16" as="targetPoint" />
          </mxGeometry>
        </mxCell>
        <mxCell id="SiTae46YhSQeUBweOZPs-9" value="" style="edgeStyle=orthogonalEdgeStyle;html=1;endArrow=classic;elbow=vertical;startArrow=none;endFill=1;strokeColor=#000000;rounded=0;strokeWidth=4;fontSize=18;" edge="1" parent="1">
          <mxGeometry width="100" relative="1" as="geometry">
            <mxPoint x="541" y="891.16" as="sourcePoint" />
            <mxPoint x="261" y="891.16" as="targetPoint" />
          </mxGeometry>
        </mxCell>
        <mxCell id="SiTae46YhSQeUBweOZPs-10" value="" style="edgeStyle=orthogonalEdgeStyle;html=1;endArrow=classic;elbow=vertical;startArrow=none;endFill=1;strokeColor=#000000;rounded=0;strokeWidth=4;fontSize=18;entryX=0.283;entryY=1.05;entryDx=0;entryDy=0;entryPerimeter=0;" edge="1" parent="1">
          <mxGeometry width="100" relative="1" as="geometry">
            <mxPoint x="586" y="818" as="sourcePoint" />
            <mxPoint x="586.8000000000002" y="570" as="targetPoint" />
          </mxGeometry>
        </mxCell>
        <mxCell id="SiTae46YhSQeUBweOZPs-11" value="" style="edgeStyle=orthogonalEdgeStyle;html=1;endArrow=classic;elbow=vertical;startArrow=none;endFill=1;strokeColor=#FFB366;rounded=0;strokeWidth=4;fontSize=18;entryX=0.283;entryY=1.05;entryDx=0;entryDy=0;entryPerimeter=0;" edge="1" parent="1">
          <mxGeometry width="100" relative="1" as="geometry">
            <mxPoint x="210" y="818" as="sourcePoint" />
            <mxPoint x="210.80000000000018" y="570" as="targetPoint" />
          </mxGeometry>
        </mxCell>
        <mxCell id="SiTae46YhSQeUBweOZPs-12" value="" style="endArrow=classic;html=1;rounded=0;strokeColor=#FFB366;strokeWidth=4;align=center;verticalAlign=middle;fontFamily=Helvetica;fontSize=18;fontColor=default;labelBackgroundColor=default;elbow=vertical;startArrow=none;endFill=1;entryX=0.008;entryY=0.925;entryDx=0;entryDy=0;entryPerimeter=0;" edge="1" parent="1" target="9IdHVp8q6OA4bG9y2jCa-19">
          <mxGeometry width="50" height="50" relative="1" as="geometry">
            <mxPoint x="240" y="820" as="sourcePoint" />
            <mxPoint x="450" y="650" as="targetPoint" />
          </mxGeometry>
        </mxCell>
        <mxCell id="SiTae46YhSQeUBweOZPs-13" value="" style="endArrow=classic;html=1;rounded=0;strokeWidth=4;strokeColor=#FF6666;fontSize=18;" edge="1" parent="1">
          <mxGeometry width="50" height="50" relative="1" as="geometry">
            <mxPoint x="550" y="830" as="sourcePoint" />
            <mxPoint x="235" y="561" as="targetPoint" />
          </mxGeometry>
        </mxCell>
        <mxCell id="SiTae46YhSQeUBweOZPs-26" value="" style="endArrow=classic;html=1;rounded=0;strokeWidth=4;strokeColor=#FF6666;fontSize=18;curved=1;" edge="1" parent="1">
          <mxGeometry width="50" height="50" relative="1" as="geometry">
            <mxPoint x="140" y="480" as="sourcePoint" />
            <mxPoint x="180" y="420" as="targetPoint" />
            <Array as="points">
              <mxPoint x="90" y="370" />
            </Array>
          </mxGeometry>
        </mxCell>
        <mxCell id="SiTae46YhSQeUBweOZPs-27" value="" style="endArrow=classic;html=1;rounded=0;strokeWidth=4;strokeColor=#66B2FF;fontSize=18;curved=1;" edge="1" parent="1">
          <mxGeometry width="50" height="50" relative="1" as="geometry">
            <mxPoint x="660" y="480" as="sourcePoint" />
            <mxPoint x="620" y="420" as="targetPoint" />
            <Array as="points">
              <mxPoint x="710" y="370" />
            </Array>
          </mxGeometry>
        </mxCell>
        <mxCell id="SiTae46YhSQeUBweOZPs-28" value="" style="endArrow=classic;html=1;rounded=0;strokeWidth=4;strokeColor=#FFB366;fontSize=18;curved=1;" edge="1" parent="1">
          <mxGeometry width="50" height="50" relative="1" as="geometry">
            <mxPoint x="140" y="880" as="sourcePoint" />
            <mxPoint x="180" y="940" as="targetPoint" />
            <Array as="points">
              <mxPoint x="90" y="990" />
            </Array>
          </mxGeometry>
        </mxCell>
        <mxCell id="SiTae46YhSQeUBweOZPs-29" value="" style="endArrow=classic;html=1;rounded=0;strokeWidth=4;strokeColor=#000000;fontSize=18;curved=1;" edge="1" parent="1">
          <mxGeometry width="50" height="50" relative="1" as="geometry">
            <mxPoint x="660" y="880" as="sourcePoint" />
            <mxPoint x="620" y="940" as="targetPoint" />
            <Array as="points">
              <mxPoint x="710" y="990" />
            </Array>
          </mxGeometry>
        </mxCell>
        <mxCell id="SiTae46YhSQeUBweOZPs-30" value="&lt;font style=&quot;font-size: 18px;&quot;&gt;$$a_1$$&lt;/font&gt;" style="text;html=1;align=center;verticalAlign=middle;resizable=0;points=[];autosize=1;strokeColor=none;fillColor=none;" vertex="1" parent="1">
          <mxGeometry x="345" y="413" width="90" height="40" as="geometry" />
        </mxCell>
        <mxCell id="SiTae46YhSQeUBweOZPs-31" value="$$b_0$$" style="text;html=1;align=center;verticalAlign=middle;resizable=0;points=[];autosize=1;strokeColor=none;fillColor=none;" vertex="1" parent="1">
          <mxGeometry x="355" y="508" width="70" height="30" as="geometry" />
        </mxCell>
      </root>
    </mxGraphModel>
  </diagram>
</mxfile>
